<?xml version="1.0" standalone="no"?>
<!DOCTYPE svg PUBLIC "-//W3C//DTD SVG 20010904//EN"
 "http://www.w3.org/TR/2001/REC-SVG-20010904/DTD/svg10.dtd">
<svg version="1.0" xmlns="http://www.w3.org/2000/svg"
 width="1024.000000pt" height="1024.000000pt" viewBox="0 0 1024.000000 1024.000000"
 preserveAspectRatio="xMidYMid meet">
<metadata>
Created by potrace 1.11, written by Peter Selinger 2001-2013
</metadata>
<g transform="translate(0.000000,1024.000000) scale(0.100000,-0.100000)"
fill="#000000" stroke="none">
<path d="M3224 10051 c-3 -3 -30 -6 -62 -8 -31 -2 -77 -5 -102 -8 -103 -11
-115 -13 -115 -15 0 -1 -8 -3 -17 -5 -38 -7 -136 -102 -162 -155 -26 -56 -54
-99 -59 -93 -4 3 -8 -1 -8 -10 -2 -27 -3 -29 -31 -84 -15 -29 -25 -53 -23 -53
2 0 -7 -23 -21 -51 -15 -28 -27 -56 -28 -63 -4 -18 -25 -69 -36 -89 -6 -10 -8
-22 -5 -27 3 -4 1 -10 -5 -12 -5 -1 -11 -12 -13 -23 -2 -11 -9 -30 -15 -42 -7
-13 -10 -23 -8 -23 3 0 -3 -20 -14 -45 -11 -25 -17 -45 -13 -45 3 0 0 -6 -6
-13 -6 -8 -8 -17 -4 -20 3 -4 1 -7 -5 -7 -6 0 -9 -9 -7 -20 2 -11 -1 -20 -7
-20 -6 0 -9 -3 -5 -6 3 -4 0 -22 -8 -40 -8 -19 -12 -34 -9 -34 2 0 -2 -13 -11
-30 -8 -16 -15 -32 -15 -35 0 -3 0 -6 -1 -7 0 -2 -3 -12 -5 -23 -8 -33 -12
-50 -14 -52 -2 -2 -3 -6 -4 -10 -1 -5 -4 -12 -7 -18 -3 -5 -5 -17 -4 -25 0 -8
-3 -18 -7 -21 -4 -3 -9 -17 -10 -32 -1 -15 -5 -27 -8 -27 -3 0 -7 -8 -8 -17
-2 -21 -10 -57 -12 -60 -2 -2 -3 -6 -4 -10 -1 -5 -5 -14 -10 -21 -4 -7 -5 -16
-2 -19 3 -3 1 -12 -4 -19 -6 -6 -10 -16 -8 -20 3 -13 -13 -77 -22 -89 -4 -5
-8 -18 -9 -27 -3 -41 -5 -48 -13 -48 -5 0 -7 -9 -3 -19 3 -11 2 -22 -4 -25 -5
-3 -8 -14 -6 -24 1 -9 -2 -22 -6 -28 -5 -6 -11 -24 -13 -40 -7 -44 -11 -58
-19 -71 -5 -7 -6 -17 -2 -22 3 -5 1 -12 -5 -16 -6 -4 -8 -10 -6 -13 2 -4 -2
-32 -11 -62 -8 -30 -16 -66 -18 -80 -2 -14 -4 -25 -5 -25 -2 0 -11 -36 -15
-65 -1 -14 -4 -27 -6 -30 -1 -3 -3 -9 -4 -15 -2 -5 -4 -12 -5 -15 -1 -3 -3
-14 -5 -25 -1 -11 -6 -33 -9 -50 -4 -16 -9 -39 -11 -50 -2 -11 -7 -31 -10 -45
-4 -14 -8 -36 -10 -50 -2 -14 -7 -38 -11 -55 -3 -16 -8 -39 -9 -50 -2 -11 -4
-20 -5 -20 -1 0 -4 -13 -5 -30 -2 -16 -6 -41 -10 -55 -4 -14 -8 -38 -11 -55
-2 -16 -6 -41 -9 -55 -12 -59 -24 -133 -30 -175 -2 -16 -4 -30 -5 -30 -2 0 -4
-9 -13 -80 -3 -16 -8 -50 -12 -75 -5 -25 -9 -58 -10 -75 -2 -16 -4 -30 -5 -30
-1 0 -4 -20 -7 -45 -7 -72 -10 -100 -13 -102 -2 -2 -4 -21 -6 -43 -2 -22 -6
-60 -9 -85 -22 -196 -30 -294 -40 -475 -8 -134 -12 -648 -6 -660 3 -5 6 -39 7
-75 1 -36 2 -65 4 -65 1 0 4 -20 6 -45 5 -64 11 -105 14 -105 1 0 4 -13 6 -30
3 -31 11 -70 14 -70 1 0 3 -9 5 -19 2 -11 6 -30 10 -43 3 -13 5 -25 5 -28 0
-3 7 -19 15 -35 8 -16 15 -32 14 -35 -3 -14 57 -124 87 -162 19 -23 34 -46 34
-52 0 -6 4 -10 9 -8 5 1 17 -6 28 -16 32 -31 123 -94 153 -107 17 -7 30 -16
30 -21 0 -5 3 -8 8 -7 4 1 21 -4 37 -11 17 -7 30 -11 30 -9 1 2 12 -4 25 -13
14 -9 39 -20 55 -24 17 -5 33 -9 38 -10 4 -2 8 -4 10 -5 2 -3 20 -6 67 -14 14
-2 26 -5 28 -6 1 -2 11 -4 22 -5 11 -1 23 -4 28 -5 4 -2 18 -4 32 -5 14 -2 27
-4 30 -5 33 -14 565 -14 565 0 0 1 20 3 45 5 25 1 45 3 45 5 0 1 11 3 25 5 75
10 143 22 148 25 1 2 11 4 22 5 11 1 21 3 23 5 4 3 41 11 57 12 8 0 20 4 25 8
6 4 18 6 28 5 9 -2 17 0 17 4 0 4 8 8 18 9 20 2 56 10 60 12 1 2 7 4 12 5 6 1
11 3 13 5 1 1 9 3 17 5 40 8 166 48 176 56 6 5 14 6 17 2 4 -3 13 0 22 7 8 7
15 9 15 5 0 -4 7 -2 15 5 8 7 15 9 15 5 0 -4 6 -2 13 4 8 6 17 8 20 4 4 -3 7
-1 7 6 0 7 4 10 9 7 5 -3 25 1 45 9 20 8 36 13 36 10 0 -3 10 1 23 10 13 8 27
12 30 8 4 -3 7 -1 7 5 0 6 7 9 15 6 10 -4 12 -10 7 -18 -5 -6 -10 -18 -10 -26
-1 -24 -7 -43 -21 -68 -7 -13 -10 -26 -7 -29 3 -4 2 -11 -4 -17 -5 -7 -12 -27
-15 -46 -9 -47 -13 -65 -15 -65 -2 0 -9 -33 -15 -65 -2 -14 -4 -25 -5 -25 -3
0 -19 -86 -25 -130 -3 -16 -7 -48 -10 -70 -21 -151 -22 -478 -1 -640 2 -16 5
-31 6 -32 1 -2 4 -12 5 -23 1 -11 3 -21 4 -22 2 -2 5 -14 8 -28 7 -38 11 -55
13 -57 2 -2 4 -7 5 -13 1 -5 4 -12 5 -15 1 -3 4 -9 5 -15 1 -5 3 -11 5 -12 1
-2 3 -10 5 -18 5 -26 75 -169 85 -175 6 -4 8 -11 5 -16 -4 -5 1 -9 10 -9 9 0
14 -4 11 -8 -3 -5 13 -30 35 -58 21 -27 47 -60 56 -74 15 -23 116 -116 172
-157 13 -10 32 -26 42 -36 11 -9 24 -17 29 -17 6 0 20 -9 32 -20 12 -11 34
-26 50 -32 15 -7 28 -17 28 -21 0 -5 4 -6 9 -3 5 3 14 -1 21 -9 7 -8 18 -15
26 -15 7 0 20 -7 28 -16 9 -8 20 -12 26 -9 5 3 10 3 10 -2 0 -4 15 -14 33 -22
17 -7 50 -22 72 -31 45 -21 74 -31 78 -27 2 1 15 -6 30 -16 15 -9 27 -15 27
-12 0 3 18 -4 40 -15 22 -11 40 -18 40 -15 0 3 14 -1 30 -10 17 -9 30 -12 30
-8 0 4 5 2 12 -5 7 -7 22 -12 34 -12 13 0 26 -5 29 -10 4 -6 10 -8 15 -5 5 3
12 0 15 -6 4 -5 13 -8 21 -5 8 3 14 1 14 -4 0 -6 10 -10 23 -10 13 0 28 -5 35
-12 7 -7 12 -9 12 -5 0 3 12 2 28 -4 24 -10 41 -14 77 -22 6 -2 16 -6 23 -10
6 -5 12 -5 12 -1 0 3 7 1 15 -6 8 -7 15 -9 15 -5 0 4 7 2 15 -5 8 -7 21 -10
30 -7 8 4 17 2 20 -4 4 -5 11 -7 16 -4 5 4 9 1 9 -4 0 -6 3 -10 8 -9 4 1 27
-5 52 -12 57 -17 52 -16 70 -22 16 -6 130 -41 143 -44 4 -1 9 -3 12 -4 3 -1
10 -4 15 -5 6 -1 12 -4 15 -5 3 -1 10 -4 15 -5 6 -1 12 -4 15 -5 3 -1 10 -4
15 -5 6 -1 12 -4 15 -5 3 -1 8 -3 13 -5 4 -1 21 -7 37 -14 17 -7 39 -15 49
-17 11 -2 23 -9 26 -15 4 -6 9 -9 11 -8 8 5 69 -20 69 -28 0 -5 -15 -10 -32
-11 -34 -3 -73 -9 -73 -12 0 -1 -16 -4 -35 -6 -19 -2 -57 -6 -85 -9 -27 -3
-75 -8 -105 -11 -73 -7 -469 -6 -545 1 -33 3 -80 7 -105 9 -25 2 -46 5 -47 6
-2 1 -16 4 -33 5 -16 1 -31 4 -32 5 -2 1 -14 4 -28 6 -60 8 -85 12 -87 14 -2
1 -12 4 -23 5 -11 1 -21 3 -22 5 -2 1 -12 3 -22 5 -11 2 -31 7 -45 11 -14 4
-29 8 -33 9 -5 2 -10 4 -13 5 -3 1 -8 3 -12 4 -25 6 -90 30 -99 37 -6 5 -14 6
-17 2 -4 -3 -7 -1 -7 5 0 7 -7 12 -15 12 -9 0 -32 11 -53 23 -20 13 -50 32
-67 43 -23 14 -50 19 -115 19 l-85 1 -35 -41 c-19 -23 -104 -88 -188 -146
-203 -138 -187 -126 -272 -190 -41 -31 -87 -68 -102 -82 -16 -14 -28 -24 -28
-20 0 3 -15 -13 -32 -35 -18 -23 -37 -41 -43 -42 -5 0 -21 -16 -34 -35 -13
-19 -33 -46 -46 -61 -19 -23 -68 -109 -70 -124 0 -3 -6 -15 -13 -26 -6 -12 -9
-24 -5 -27 3 -4 1 -12 -4 -19 -5 -7 -9 -76 -7 -158 2 -183 7 -206 60 -286 38
-59 94 -111 168 -159 72 -46 146 -87 146 -81 0 3 20 -6 45 -20 25 -13 45 -22
45 -19 0 3 22 -6 50 -20 27 -14 50 -22 50 -19 0 4 7 1 15 -6 8 -7 15 -9 15 -5
0 4 7 2 15 -5 8 -7 15 -9 15 -5 0 4 7 2 15 -5 8 -7 15 -9 15 -5 0 4 7 1 17 -6
9 -8 19 -13 22 -13 3 1 11 0 16 -2 56 -18 115 -32 115 -27 0 3 7 0 15 -7 8 -7
15 -9 15 -5 0 4 7 2 15 -5 8 -6 19 -9 24 -6 5 4 13 1 16 -5 4 -5 14 -8 22 -5
8 3 20 3 26 -1 13 -8 25 -11 72 -19 48 -8 70 -12 73 -14 1 -2 11 -4 22 -5 11
-1 21 -4 23 -5 2 -2 27 -6 90 -15 20 -3 54 -7 75 -10 20 -3 56 -7 79 -8 24 -1
43 -4 43 -8 0 -3 21 -4 48 -4 26 1 52 -1 57 -4 15 -8 111 -11 485 -14 190 -2
350 -1 355 2 6 3 39 6 75 7 36 1 65 3 65 4 0 1 23 4 50 6 45 3 89 7 180 18 17
2 30 5 30 6 0 1 14 3 30 5 33 3 81 10 135 20 19 4 44 8 55 10 11 2 34 7 50 10
17 4 37 8 45 10 8 2 15 4 15 6 0 1 11 3 25 4 26 3 65 12 65 15 0 1 7 3 15 5
16 4 48 12 80 20 11 3 29 7 39 9 11 3 29 10 40 16 12 6 21 8 21 4 0 -3 7 -1
15 6 8 6 18 9 24 6 5 -4 16 0 24 8 8 8 17 12 21 9 3 -3 12 0 21 7 8 7 15 9 15
5 0 -4 7 -2 15 5 8 7 15 9 15 5 0 -4 7 -2 15 5 8 7 15 9 15 6 0 -4 10 -1 23 6
12 6 27 13 33 14 5 1 30 12 55 24 24 12 68 30 96 41 29 11 53 25 53 30 0 6 4
8 9 5 5 -3 25 5 45 19 20 14 40 25 45 25 4 0 18 10 31 22 14 13 27 22 30 20 8
-5 120 69 120 80 0 5 4 7 9 3 5 -3 17 3 27 12 9 10 31 28 47 40 49 37 167 153
167 165 0 6 3 9 6 5 4 -3 25 17 48 46 63 78 86 114 79 121 -3 3 -1 6 6 6 7 0
19 15 27 33 9 17 24 48 34 67 10 19 16 38 14 42 -2 3 0 8 6 10 6 2 12 14 15
27 2 14 8 27 13 30 5 3 8 14 6 23 -1 10 2 18 8 18 6 0 8 6 5 14 -3 8 -3 17 1
20 7 8 13 33 15 64 0 12 4 22 8 22 4 0 6 14 5 30 -1 17 1 30 5 30 4 0 7 21 8
48 0 26 2 108 4 182 2 74 1 140 -2 145 -3 6 -7 30 -8 55 -3 60 -15 147 -23
170 -1 3 -3 10 -4 15 -1 6 -8 30 -15 55 -7 25 -14 50 -16 55 -1 6 -7 21 -12
35 -6 14 -9 28 -6 33 2 4 -1 7 -6 7 -6 0 -10 4 -9 8 6 17 -77 176 -133 259
-16 23 -29 43 -29 46 0 16 -228 252 -285 295 -17 12 -55 40 -85 62 -30 22 -59
43 -65 47 -27 22 -161 98 -168 95 -4 -1 -10 5 -13 13 -4 8 -14 15 -24 15 -10
0 -23 7 -30 15 -7 8 -19 15 -26 15 -8 0 -14 5 -14 10 0 6 -3 9 -7 8 -5 -2 -30
8 -58 21 -130 60 -151 70 -165 73 -8 2 -18 6 -21 11 -3 4 -15 9 -26 12 -12 2
-33 11 -47 20 -14 10 -26 14 -26 9 0 -4 -5 -3 -12 4 -7 7 -20 12 -30 12 -10 0
-18 4 -18 9 0 5 -15 12 -32 16 -18 4 -35 9 -38 10 -3 1 -18 7 -33 13 -16 7
-33 12 -38 12 -5 0 -9 4 -9 9 0 6 -9 8 -20 6 -12 -2 -23 2 -27 11 -3 8 -11 13
-18 10 -7 -2 -16 -2 -20 2 -4 4 -10 7 -13 7 -4 1 -18 7 -32 15 -14 7 -27 13
-30 13 -6 -1 -23 4 -47 14 -10 3 -20 7 -23 8 -3 1 -21 8 -40 16 -19 7 -38 12
-42 11 -5 -1 -8 3 -8 10 0 6 -3 8 -6 5 -4 -3 -16 -1 -28 5 -11 7 -24 11 -28
10 -5 -1 -8 3 -8 8 0 6 -8 10 -18 10 -10 0 -27 7 -38 15 -12 8 -24 11 -28 8
-3 -3 -6 -1 -6 5 0 7 -6 12 -13 12 -8 0 -34 11 -58 25 -24 14 -51 28 -59 32
-35 15 -132 97 -139 116 -8 20 7 67 22 67 4 0 7 6 7 13 0 8 9 22 20 32 11 10
17 22 14 26 -3 5 2 9 10 9 9 0 16 4 16 9 0 11 134 119 163 132 12 5 37 18 55
29 17 11 32 16 32 12 0 -4 4 -2 8 3 7 11 119 68 124 64 2 -1 22 8 46 20 23 12
42 18 42 15 0 -4 8 0 18 9 10 10 22 14 25 11 4 -4 13 -1 22 6 8 7 15 9 15 5 0
-4 7 -2 15 5 8 7 15 9 15 5 0 -4 7 -2 15 5 8 7 15 9 15 5 0 -4 7 -2 15 5 8 7
15 9 15 5 0 -4 6 -2 13 4 8 6 17 8 20 5 3 -3 12 -2 19 2 7 5 16 9 21 10 4 1 8
2 10 3 1 2 13 5 27 8 39 7 55 11 55 13 0 2 27 8 60 15 38 8 60 13 60 15 0 2
25 8 70 15 22 3 49 9 60 12 19 6 36 9 88 16 12 1 27 5 32 9 6 3 19 4 29 2 11
-1 25 0 30 4 6 3 25 7 41 9 17 1 46 5 65 8 19 4 51 8 70 10 19 1 37 3 40 5 3
1 19 3 35 4 17 1 35 4 40 7 6 4 26 5 45 4 19 -1 40 0 45 3 6 4 28 7 50 7 22 0
45 3 50 6 6 3 28 5 50 4 22 -1 51 3 65 8 14 6 29 11 33 11 5 1 14 9 21 18 7
10 18 18 25 18 6 0 11 7 11 15 0 8 5 15 11 15 6 0 9 7 5 15 -3 8 2 19 12 24 9
5 14 12 10 16 -3 4 1 23 9 43 8 20 15 38 14 40 0 1 -1 3 0 5 6 19 14 66 23
127 2 14 5 25 6 25 4 0 18 134 25 230 8 101 12 538 6 550 -3 6 -6 35 -7 65 -2
30 -5 73 -9 95 -3 22 -8 54 -10 70 -7 46 -12 70 -15 73 -1 1 -4 7 -5 12 -1 6
-4 13 -5 18 -1 4 -2 11 -1 16 1 5 -1 16 -5 25 -4 9 -8 19 -9 24 -2 4 -4 9 -5
12 -1 3 -4 10 -5 15 -1 6 -4 12 -5 15 -1 3 -3 8 -4 13 -4 21 -67 141 -81 152
-8 7 -15 18 -15 24 -1 19 -160 126 -187 127 -5 0 -26 5 -48 11 -59 17 -66 18
-116 22 -25 1 -50 5 -55 8 -14 7 -459 -4 -459 -12 0 -1 -18 -4 -40 -6 -74 -7
-110 -12 -110 -14 0 -1 -13 -3 -30 -5 -16 -2 -41 -6 -55 -9 -60 -14 -77 -17
-105 -21 -16 -2 -44 -8 -62 -13 -17 -6 -34 -8 -37 -5 -2 3 -11 1 -18 -3 -14
-9 -30 -13 -68 -19 -14 -1 -27 -4 -30 -5 -3 -1 -9 -3 -15 -5 -5 -1 -12 -3 -15
-4 -5 -3 -31 -9 -65 -16 -26 -5 -59 -13 -65 -15 -3 -1 -9 -3 -15 -5 -5 -1 -12
-3 -15 -4 -6 -3 -35 -10 -65 -16 -36 -7 -60 -13 -87 -24 -16 -6 -28 -8 -28 -5
0 4 -6 2 -12 -3 -7 -5 -26 -10 -42 -11 -17 -1 -32 -5 -35 -10 -3 -4 -11 -8
-17 -9 -6 -1 -23 -4 -38 -7 -14 -2 -29 -7 -34 -10 -5 -3 -19 -7 -33 -10 -57
-12 -69 -15 -87 -25 -11 -6 -22 -8 -25 -5 -3 3 -14 1 -25 -5 -10 -5 -32 -13
-48 -16 -39 -8 -59 -13 -59 -15 0 -1 -8 -3 -17 -6 -10 -2 -26 -6 -35 -8 -10
-3 -19 -5 -20 -6 -2 -2 -7 -4 -13 -5 -5 -1 -11 -3 -12 -5 -4 -2 -37 -10 -63
-15 -11 -2 -21 -4 -22 -5 -2 -2 -7 -4 -13 -5 -5 -1 -11 -4 -12 -5 -2 -1 -13
-4 -25 -5 -12 -1 -30 -6 -40 -10 -22 -10 -32 -13 -58 -19 -11 -2 -20 -5 -20
-6 0 -2 -35 -10 -68 -15 -15 -2 -32 -7 -37 -10 -6 -3 -20 -8 -32 -11 -39 -9
-53 -12 -53 -14 0 -1 -7 -3 -15 -5 -8 -2 -28 -6 -45 -10 -16 -3 -36 -7 -42 -7
-7 -1 -13 -4 -13 -8 0 -3 -8 -7 -17 -8 -22 -2 -58 -10 -58 -12 0 -3 -39 -11
-55 -12 -8 0 -19 -4 -25 -8 -5 -4 -18 -6 -27 -5 -10 2 -18 0 -18 -4 0 -4 -8
-7 -17 -7 -10 -1 -31 -4 -48 -8 -16 -4 -39 -9 -50 -10 -11 -2 -22 -5 -25 -6
-3 -1 -9 -3 -15 -4 -5 -1 -21 -5 -35 -9 -14 -4 -38 -9 -55 -12 -51 -10 -74
-14 -98 -19 -12 -3 -38 -7 -57 -10 -19 -3 -46 -9 -60 -12 -14 -3 -41 -7 -60
-9 -19 -2 -53 -7 -75 -10 -114 -16 -235 -21 -300 -12 -22 3 -41 6 -42 7 -2 2
-12 4 -23 5 -11 1 -22 4 -25 5 -3 1 -9 4 -15 5 -5 1 -12 4 -15 5 -3 1 -9 4
-15 5 -5 1 -11 3 -12 5 -2 1 -11 3 -20 5 -29 5 -117 79 -118 98 0 9 -4 17 -10
17 -5 0 -13 12 -16 28 -4 15 -9 32 -13 37 -3 6 -7 19 -9 30 -5 30 -10 50 -12
50 -1 0 -3 33 -4 73 -1 39 2 72 6 72 4 0 6 13 4 30 -2 16 -1 32 3 36 3 3 7 17
9 30 4 44 9 79 12 79 1 0 3 14 6 30 4 32 11 68 14 73 3 3 5 10 15 57 13 56 12
54 15 60 1 3 3 8 4 13 1 4 5 13 10 20 4 7 5 16 2 19 -3 3 -1 12 5 20 6 7 8 13
4 13 -4 0 -2 6 4 14 6 8 11 18 10 22 -1 5 0 11 1 14 1 3 3 12 5 20 2 8 10 34
19 58 8 23 13 42 10 42 -2 0 2 14 11 30 9 17 13 30 9 30 -4 0 -1 7 6 15 7 8 9
15 5 15 -4 0 -2 7 5 15 7 8 9 15 5 15 -4 0 -2 7 5 15 7 9 10 18 7 21 -3 4 1
13 9 21 8 8 12 18 9 23 -3 4 2 21 10 36 8 16 15 36 15 45 0 8 4 19 9 25 6 5
12 22 15 37 3 16 9 34 14 40 5 7 13 26 17 42 10 38 9 34 24 70 7 17 14 38 17
49 2 10 8 24 14 32 7 7 9 18 5 24 -3 5 -2 10 3 10 9 0 37 78 34 93 -1 4 3 7 9
7 5 0 8 4 5 8 -3 5 1 20 9 35 8 15 11 27 8 27 -3 0 0 6 6 14 7 8 14 22 16 32
2 11 13 43 24 72 12 28 18 52 15 52 -3 0 2 7 11 16 9 9 14 23 11 30 -3 7 -1
16 5 19 5 4 7 11 4 16 -4 5 -2 9 4 9 6 0 16 19 22 43 7 23 13 44 14 47 1 3 7
19 14 35 7 17 14 37 16 45 2 8 4 16 5 18 2 1 3 5 5 10 1 4 7 21 14 37 7 17 14
35 15 40 1 6 5 16 9 23 5 6 6 16 3 21 -4 5 -2 11 4 13 5 1 11 14 14 28 2 14 5
26 7 28 1 1 3 7 4 12 1 6 4 12 5 15 1 3 4 10 5 15 1 6 3 11 5 13 1 1 3 10 6
20 2 9 6 25 8 35 3 9 5 18 6 20 2 1 4 7 5 12 1 6 3 11 4 13 2 1 4 13 7 27 2
14 7 32 11 40 3 8 8 24 10 35 7 29 9 38 17 56 4 9 9 29 11 45 2 16 4 29 5 29
4 0 19 79 23 125 2 14 6 30 9 35 3 6 5 24 3 40 -1 17 1 35 4 40 7 12 9 336 2
350 -6 11 -13 53 -12 77 0 10 -4 20 -10 23 -5 4 -9 16 -9 29 0 12 -5 27 -12
34 -7 7 -9 12 -5 12 4 0 -10 22 -32 50 -21 27 -41 53 -43 57 -14 33 -209 145
-290 168 -5 2 -9 3 -10 5 -4 2 -37 10 -63 15 -11 2 -22 4 -25 6 -3 1 -9 3 -15
4 -5 2 -13 4 -17 5 -5 1 -17 4 -28 5 -11 1 -21 3 -22 5 -4 2 -58 9 -128 15
-75 7 -510 12 -516 6z"/>
</g>
</svg>
