<?xml version="1.0" standalone="no"?>
<!DOCTYPE svg PUBLIC "-//W3C//DTD SVG 20010904//EN"
 "http://www.w3.org/TR/2001/REC-SVG-20010904/DTD/svg10.dtd">
<svg version="1.0" xmlns="http://www.w3.org/2000/svg"
 width="128.000000pt" height="128.000000pt" viewBox="0 0 128.000000 128.000000"
 preserveAspectRatio="xMidYMid meet">
<metadata>
Created by potrace 1.11, written by Peter Selinger 2001-2013
</metadata>
<g transform="translate(0.000000,128.000000) scale(0.100000,-0.100000)"
fill="#000000" stroke="none">
<path d="M389 1239 c-23 -8 -31 -25 -59 -112 -18 -56 -36 -113 -40 -127 -19
-56 -50 -211 -54 -265 -8 -129 34 -166 180 -161 49 2 96 5 104 7 12 3 14 -7
12 -62 -7 -136 48 -194 221 -234 43 -10 74 -22 69 -27 -26 -26 -143 -31 -213
-8 l-41 14 -44 -46 c-68 -72 -58 -107 40 -138 43 -14 200 -18 261 -7 48 9 113
39 143 67 23 22 57 80 46 80 -4 0 -2 6 3 12 37 48 -55 198 -121 198 -8 0 -25
4 -38 9 -13 5 -42 14 -66 21 -47 12 -67 41 -50 72 15 30 93 63 173 74 80 12
89 23 94 120 3 69 -17 88 -89 86 -26 -1 -135 -16 -193 -27 -134 -26 -245 -37
-274 -27 -18 6 -1 111 53 324 29 117 29 130 4 145 -28 18 -91 24 -121 12z"/>
</g>
</svg>
